<svg xmlns="http://www.w3.org/2000/svg" viewBox="0 0 1600 900">
<defs>
  <linearGradient id="sky1" x1="0" y1="0" x2="0" y2="1">
    <stop offset="0" stop-color="#3A7A96"/>
    <stop offset="0.5" stop-color="#16294D"/>
    <stop offset="1" stop-color="#0B1526"/>
  </linearGradient>
  <linearGradient id="lagoon1" x1="0" y1="0" x2="0" y2="1">
    <stop offset="0" stop-color="#4FA8A6"/>
    <stop offset="1" stop-color="#14918F"/>
  </linearGradient>
</defs>
<rect width="1600" height="900" fill="url(#sky1)"/>

<circle cx="1260" cy="170" r="72" fill="#C9A55C" opacity="0.15"/>
<circle cx="1260" cy="170" r="46" fill="#F0E6D2" opacity="0.85"/>

<!-- omega watermark -->
<path d="M560 650 v-120 h64 v-120 a176 200 0 1 1 352 0 v120 h64 v120 h-160 v-260 a112 132 0 1 0 -224 0 v260 Z"
  fill="none" stroke="#F7F5F0" stroke-width="6" opacity="0.07"/>

<!-- far ridge -->
<path d="M0 560 Q220 500 460 545 T900 540 T1600 560 V900 H0 Z" fill="#0F1C33" opacity="0.55"/>

<!-- lagoon body -->
<path d="M120 900 V700 Q400 560 800 640 Q1180 710 1480 620 V900 Z" fill="url(#lagoon1)" opacity="0.9"/>

<!-- sand spit -->
<path d="M120 900 V740 Q460 610 900 690 Q1220 750 1480 660 V900 Z" fill="#F0E6D2" opacity="0.18"/>
<path d="M120 760 Q460 630 900 705 Q1220 762 1480 675" fill="none" stroke="#F0E6D2" stroke-width="5" opacity="0.55"/>

<!-- near pine ridge -->
<path d="M0 900 V680 L60 630 100 690 150 610 190 680 240 620 300 700 360 640 420 900 Z" fill="#0D2B26" opacity="0.9"/>
<path d="M1600 900 V670 L1540 615 1495 680 1450 600 1400 675 1345 610 1290 695 1230 640 1170 900 Z" fill="#0D2B26" opacity="0.9"/>
</svg>
