<svg xmlns="http://www.w3.org/2000/svg" viewBox="0 0 1600 900">
<defs>
  <linearGradient id="sky2" x1="0" y1="0" x2="0" y2="1">
    <stop offset="0" stop-color="#2E6E8E"/>
    <stop offset="0.55" stop-color="#16294D"/>
    <stop offset="1" stop-color="#0B1526"/>
  </linearGradient>
</defs>
<rect width="1600" height="900" fill="url(#sky2)"/>

<circle cx="360" cy="150" r="60" fill="#F0E6D2" opacity="0.8"/>

<!-- omega watermark -->
<path d="M900 700 v-130 h68 v-130 a190 216 0 1 1 380 0 v130 h68 v130 h-172 v-282 a121 143 0 1 0 -242 0 v282 Z"
  fill="none" stroke="#F7F5F0" stroke-width="6" opacity="0.06"/>

<!-- paragliders -->
<g opacity="0.9" stroke="#F7F5F0" stroke-width="3" fill="none">
  <path d="M420 260 q40 -34 80 0" />
  <line x1="425" y1="262" x2="455" y2="300"/>
  <line x1="495" y1="262" x2="465" y2="300"/>
  <circle cx="460" cy="304" r="4" fill="#F7F5F0" stroke="none"/>

  <path d="M760 200 q34 -28 68 0" />
  <line x1="764" y1="202" x2="789" y2="234"/>
  <line x1="824" y1="202" x2="799" y2="234"/>
  <circle cx="794" cy="238" r="3.5" fill="#F7F5F0" stroke="none"/>

  <path d="M1080 320 q30 -24 60 0" />
  <line x1="1084" y1="322" x2="1106" y2="350"/>
  <line x1="1136" y1="322" x2="1114" y2="350"/>
  <circle cx="1110" cy="354" r="3" fill="#F7F5F0" stroke="none"/>
</g>

<!-- mountain ridges, layered depth -->
<path d="M0 620 Q300 520 620 590 T1600 560 V900 H0 Z" fill="#123A33" opacity="0.55"/>
<path d="M0 700 Q260 630 560 680 T1180 650 T1600 690 V900 H0 Z" fill="#0D2B26" opacity="0.75"/>
<path d="M0 820 Q400 760 800 800 T1600 790 V900 H0 Z" fill="#0B1526" opacity="0.9"/>

<!-- bay glimpse -->
<path d="M600 900 V820 Q800 780 1000 820 V900 Z" fill="#14918F" opacity="0.4"/>
</svg>
